<svg width="713" height="637" viewBox="0 0 713 637" fill="none" xmlns="http://www.w3.org/2000/svg">
<path d="M12.7441 382.584V303.834H0V291.178H12.7441V279.928C12.7441 274.068 13.6523 269.234 15.4688 265.426C17.3438 261.559 20.127 258.688 23.8184 256.812C27.5098 254.938 32.168 254 37.793 254C39.4922 254 41.1914 254.059 42.8906 254.176C44.5898 254.293 45.9961 254.439 47.1094 254.615V267.008C46.1719 266.891 45.1172 266.803 43.9453 266.744C42.832 266.686 41.6895 266.656 40.5176 266.656C36.2988 266.656 33.1348 267.77 31.0254 269.996C28.916 272.164 27.8613 275.504 27.8613 280.016V291.178H46.6699V303.834H28.0371V382.584H12.7441Z" fill="white" style="fill:white;fill-opacity:1;"/>
<path d="M12.7441 382.584V303.834H0V291.178H12.7441V279.928C12.7441 274.068 13.6523 269.234 15.4688 265.426C17.3438 261.559 20.127 258.688 23.8184 256.812C27.5098 254.938 32.168 254 37.793 254C39.4922 254 41.1914 254.059 42.8906 254.176C44.5898 254.293 45.9961 254.439 47.1094 254.615V267.008C46.1719 266.891 45.1172 266.803 43.9453 266.744C42.832 266.686 41.6895 266.656 40.5176 266.656C36.2988 266.656 33.1348 267.77 31.0254 269.996C28.916 272.164 27.8613 275.504 27.8613 280.016V291.178H46.6699V303.834H28.0371V382.584H12.7441Z" fill="url(#paint0_linear_117_1063)" fill-opacity="0.6" style=""/>
<path d="M63.457 382.584V291.178H78.75V382.584H63.457ZM71.1035 275.709C68.4668 275.709 66.2109 274.771 64.3359 272.896C62.4609 271.021 61.5234 268.766 61.5234 266.129C61.5234 263.434 62.4609 261.178 64.3359 259.361C66.2109 257.486 68.4668 256.549 71.1035 256.549C73.7988 256.549 76.0547 257.486 77.8711 259.361C79.7461 261.178 80.6836 263.434 80.6836 266.129C80.6836 268.766 79.7461 271.021 77.8711 272.896C76.0547 274.771 73.7988 275.709 71.1035 275.709Z" fill="white" style="fill:white;fill-opacity:1;"/>
<path d="M63.457 382.584V291.178H78.75V382.584H63.457ZM71.1035 275.709C68.4668 275.709 66.2109 274.771 64.3359 272.896C62.4609 271.021 61.5234 268.766 61.5234 266.129C61.5234 263.434 62.4609 261.178 64.3359 259.361C66.2109 257.486 68.4668 256.549 71.1035 256.549C73.7988 256.549 76.0547 257.486 77.8711 259.361C79.7461 261.178 80.6836 263.434 80.6836 266.129C80.6836 268.766 79.7461 271.021 77.8711 272.896C76.0547 274.771 73.7988 275.709 71.1035 275.709Z" fill="url(#paint1_linear_117_1063)" fill-opacity="0.6" style=""/>
<path d="M100.371 382.584V255.758H115.664V382.584H100.371Z" fill="white" style="fill:white;fill-opacity:1;"/>
<path d="M100.371 382.584V255.758H115.664V382.584H100.371Z" fill="url(#paint2_linear_117_1063)" fill-opacity="0.6" style=""/>
<path d="M173.936 384.342C165.205 384.342 157.676 382.408 151.348 378.541C145.078 374.674 140.244 369.225 136.846 362.193C133.506 355.104 131.836 346.783 131.836 337.232V337.145C131.836 327.711 133.535 319.42 136.934 312.271C140.332 305.064 145.107 299.469 151.26 295.484C157.412 291.441 164.648 289.42 172.969 289.42C181.289 289.42 188.438 291.354 194.414 295.221C200.449 299.029 205.078 304.391 208.301 311.305C211.523 318.219 213.135 326.246 213.135 335.387V341.012H139.482V329.059H205.576L197.842 340.133V334.244C197.842 327.154 196.758 321.295 194.59 316.666C192.48 312.037 189.551 308.609 185.801 306.383C182.051 304.098 177.744 302.955 172.881 302.955C168.018 302.955 163.652 304.156 159.785 306.559C155.918 308.902 152.871 312.418 150.645 317.105C148.418 321.734 147.305 327.447 147.305 334.244V340.133C147.305 346.578 148.389 352.086 150.557 356.656C152.783 361.227 155.918 364.742 159.961 367.203C164.004 369.605 168.779 370.807 174.287 370.807C178.154 370.807 181.611 370.221 184.658 369.049C187.705 367.877 190.254 366.266 192.305 364.215C194.355 362.164 195.82 359.82 196.699 357.184L196.963 356.393H211.992L211.816 357.271C211.055 361.021 209.59 364.537 207.422 367.818C205.312 371.1 202.588 374 199.248 376.52C195.908 378.98 192.1 380.914 187.822 382.32C183.545 383.668 178.916 384.342 173.936 384.342Z" fill="white" style="fill:white;fill-opacity:1;"/>
<path d="M173.936 384.342C165.205 384.342 157.676 382.408 151.348 378.541C145.078 374.674 140.244 369.225 136.846 362.193C133.506 355.104 131.836 346.783 131.836 337.232V337.145C131.836 327.711 133.535 319.42 136.934 312.271C140.332 305.064 145.107 299.469 151.26 295.484C157.412 291.441 164.648 289.42 172.969 289.42C181.289 289.42 188.438 291.354 194.414 295.221C200.449 299.029 205.078 304.391 208.301 311.305C211.523 318.219 213.135 326.246 213.135 335.387V341.012H139.482V329.059H205.576L197.842 340.133V334.244C197.842 327.154 196.758 321.295 194.59 316.666C192.48 312.037 189.551 308.609 185.801 306.383C182.051 304.098 177.744 302.955 172.881 302.955C168.018 302.955 163.652 304.156 159.785 306.559C155.918 308.902 152.871 312.418 150.645 317.105C148.418 321.734 147.305 327.447 147.305 334.244V340.133C147.305 346.578 148.389 352.086 150.557 356.656C152.783 361.227 155.918 364.742 159.961 367.203C164.004 369.605 168.779 370.807 174.287 370.807C178.154 370.807 181.611 370.221 184.658 369.049C187.705 367.877 190.254 366.266 192.305 364.215C194.355 362.164 195.82 359.82 196.699 357.184L196.963 356.393H211.992L211.816 357.271C211.055 361.021 209.59 364.537 207.422 367.818C205.312 371.1 202.588 374 199.248 376.52C195.908 378.98 192.1 380.914 187.822 382.32C183.545 383.668 178.916 384.342 173.936 384.342Z" fill="url(#paint3_linear_117_1063)" fill-opacity="0.6" style=""/>
<path d="M230.977 382.584V255.758H246.357L329.59 375.201L309.551 355.865H316.582V255.758H332.227V382.584H316.846L233.613 263.141L253.652 282.477H246.621V382.584H230.977Z" fill="white" style="fill:white;fill-opacity:1;"/>
<path d="M230.977 382.584V255.758H246.357L329.59 375.201L309.551 355.865H316.582V255.758H332.227V382.584H316.846L233.613 263.141L253.652 282.477H246.621V382.584H230.977Z" fill="url(#paint4_linear_117_1063)" fill-opacity="0.6" style=""/>
<path d="M378.545 384.342C372.51 384.342 367.207 383.199 362.637 380.914C358.066 378.629 354.492 375.406 351.914 371.246C349.395 367.086 348.135 362.252 348.135 356.744V356.568C348.135 351.354 349.424 346.842 352.002 343.033C354.639 339.225 358.418 336.207 363.34 333.98C368.32 331.754 374.297 330.436 381.27 330.025L415.107 328.092V339.957L383.027 341.891C376.934 342.242 372.188 343.707 368.789 346.285C365.449 348.863 363.779 352.291 363.779 356.568V356.744C363.779 361.139 365.42 364.625 368.701 367.203C372.041 369.781 376.465 371.07 381.973 371.07C386.777 371.07 391.084 370.074 394.893 368.082C398.76 366.031 401.807 363.248 404.033 359.732C406.318 356.217 407.461 352.262 407.461 347.867V320.885C407.461 315.318 405.703 310.953 402.188 307.789C398.73 304.566 393.809 302.955 387.422 302.955C381.562 302.955 376.816 304.244 373.184 306.822C369.609 309.342 367.383 312.652 366.504 316.754L366.328 317.545H351.562L351.65 316.578C352.119 311.539 353.818 306.969 356.748 302.867C359.736 298.766 363.838 295.514 369.053 293.111C374.268 290.65 380.449 289.42 387.598 289.42C394.805 289.42 401.016 290.65 406.23 293.111C411.504 295.572 415.576 299.059 418.447 303.57C421.318 308.023 422.754 313.297 422.754 319.391V382.584H407.461V367.73H407.109C405.352 371.07 403.008 374 400.078 376.52C397.148 378.98 393.838 380.914 390.146 382.32C386.514 383.668 382.646 384.342 378.545 384.342Z" fill="white" style="fill:white;fill-opacity:1;"/>
<path d="M378.545 384.342C372.51 384.342 367.207 383.199 362.637 380.914C358.066 378.629 354.492 375.406 351.914 371.246C349.395 367.086 348.135 362.252 348.135 356.744V356.568C348.135 351.354 349.424 346.842 352.002 343.033C354.639 339.225 358.418 336.207 363.34 333.98C368.32 331.754 374.297 330.436 381.27 330.025L415.107 328.092V339.957L383.027 341.891C376.934 342.242 372.188 343.707 368.789 346.285C365.449 348.863 363.779 352.291 363.779 356.568V356.744C363.779 361.139 365.42 364.625 368.701 367.203C372.041 369.781 376.465 371.07 381.973 371.07C386.777 371.07 391.084 370.074 394.893 368.082C398.76 366.031 401.807 363.248 404.033 359.732C406.318 356.217 407.461 352.262 407.461 347.867V320.885C407.461 315.318 405.703 310.953 402.188 307.789C398.73 304.566 393.809 302.955 387.422 302.955C381.562 302.955 376.816 304.244 373.184 306.822C369.609 309.342 367.383 312.652 366.504 316.754L366.328 317.545H351.562L351.65 316.578C352.119 311.539 353.818 306.969 356.748 302.867C359.736 298.766 363.838 295.514 369.053 293.111C374.268 290.65 380.449 289.42 387.598 289.42C394.805 289.42 401.016 290.65 406.23 293.111C411.504 295.572 415.576 299.059 418.447 303.57C421.318 308.023 422.754 313.297 422.754 319.391V382.584H407.461V367.73H407.109C405.352 371.07 403.008 374 400.078 376.52C397.148 378.98 393.838 380.914 390.146 382.32C386.514 383.668 382.646 384.342 378.545 384.342Z" fill="url(#paint5_linear_117_1063)" fill-opacity="0.6" style=""/>
<path d="M442.178 382.584V291.178H457.471V304.537H457.822C459.873 300.025 463.096 296.393 467.49 293.639C471.885 290.826 477.012 289.42 482.871 289.42C487.031 289.42 490.781 290.123 494.121 291.529C497.52 292.877 500.449 294.869 502.91 297.506C505.371 300.084 507.246 303.248 508.535 306.998H508.887C510.586 303.307 512.842 300.172 515.654 297.594C518.525 294.957 521.807 292.936 525.498 291.529C529.248 290.123 533.262 289.42 537.539 289.42C543.574 289.42 548.818 290.68 553.271 293.199C557.725 295.66 561.182 299.146 563.643 303.658C566.104 308.111 567.334 313.385 567.334 319.479V382.584H552.041V322.994C552.041 318.775 551.279 315.172 549.756 312.184C548.291 309.195 546.152 306.91 543.34 305.328C540.527 303.746 537.1 302.955 533.057 302.955C529.014 302.955 525.439 303.893 522.334 305.768C519.229 307.584 516.797 310.133 515.039 313.414C513.281 316.637 512.402 320.328 512.402 324.488V382.584H497.109V321.324C497.109 317.633 496.318 314.41 494.736 311.656C493.213 308.902 491.045 306.764 488.232 305.24C485.479 303.717 482.197 302.955 478.389 302.955C474.346 302.955 470.742 303.951 467.578 305.943C464.473 307.877 462.012 310.514 460.195 313.854C458.379 317.193 457.471 321.002 457.471 325.279V382.584H442.178Z" fill="white" style="fill:white;fill-opacity:1;"/>
<path d="M442.178 382.584V291.178H457.471V304.537H457.822C459.873 300.025 463.096 296.393 467.49 293.639C471.885 290.826 477.012 289.42 482.871 289.42C487.031 289.42 490.781 290.123 494.121 291.529C497.52 292.877 500.449 294.869 502.91 297.506C505.371 300.084 507.246 303.248 508.535 306.998H508.887C510.586 303.307 512.842 300.172 515.654 297.594C518.525 294.957 521.807 292.936 525.498 291.529C529.248 290.123 533.262 289.42 537.539 289.42C543.574 289.42 548.818 290.68 553.271 293.199C557.725 295.66 561.182 299.146 563.643 303.658C566.104 308.111 567.334 313.385 567.334 319.479V382.584H552.041V322.994C552.041 318.775 551.279 315.172 549.756 312.184C548.291 309.195 546.152 306.91 543.34 305.328C540.527 303.746 537.1 302.955 533.057 302.955C529.014 302.955 525.439 303.893 522.334 305.768C519.229 307.584 516.797 310.133 515.039 313.414C513.281 316.637 512.402 320.328 512.402 324.488V382.584H497.109V321.324C497.109 317.633 496.318 314.41 494.736 311.656C493.213 308.902 491.045 306.764 488.232 305.24C485.479 303.717 482.197 302.955 478.389 302.955C474.346 302.955 470.742 303.951 467.578 305.943C464.473 307.877 462.012 310.514 460.195 313.854C458.379 317.193 457.471 321.002 457.471 325.279V382.584H442.178Z" fill="url(#paint6_linear_117_1063)" fill-opacity="0.6" style=""/>
<path d="M624.463 384.342C615.732 384.342 608.203 382.408 601.875 378.541C595.605 374.674 590.771 369.225 587.373 362.193C584.033 355.104 582.363 346.783 582.363 337.232V337.145C582.363 327.711 584.062 319.42 587.461 312.271C590.859 305.064 595.635 299.469 601.787 295.484C607.939 291.441 615.176 289.42 623.496 289.42C631.816 289.42 638.965 291.354 644.941 295.221C650.977 299.029 655.605 304.391 658.828 311.305C662.051 318.219 663.662 326.246 663.662 335.387V341.012H590.01V329.059H656.104L648.369 340.133V334.244C648.369 327.154 647.285 321.295 645.117 316.666C643.008 312.037 640.078 308.609 636.328 306.383C632.578 304.098 628.271 302.955 623.408 302.955C618.545 302.955 614.18 304.156 610.312 306.559C606.445 308.902 603.398 312.418 601.172 317.105C598.945 321.734 597.832 327.447 597.832 334.244V340.133C597.832 346.578 598.916 352.086 601.084 356.656C603.311 361.227 606.445 364.742 610.488 367.203C614.531 369.605 619.307 370.807 624.814 370.807C628.682 370.807 632.139 370.221 635.186 369.049C638.232 367.877 640.781 366.266 642.832 364.215C644.883 362.164 646.348 359.82 647.227 357.184L647.49 356.393H662.52L662.344 357.271C661.582 361.021 660.117 364.537 657.949 367.818C655.84 371.1 653.115 374 649.775 376.52C646.436 378.98 642.627 380.914 638.35 382.32C634.072 383.668 629.443 384.342 624.463 384.342Z" fill="white" style="fill:white;fill-opacity:1;"/>
<path d="M624.463 384.342C615.732 384.342 608.203 382.408 601.875 378.541C595.605 374.674 590.771 369.225 587.373 362.193C584.033 355.104 582.363 346.783 582.363 337.232V337.145C582.363 327.711 584.062 319.42 587.461 312.271C590.859 305.064 595.635 299.469 601.787 295.484C607.939 291.441 615.176 289.42 623.496 289.42C631.816 289.42 638.965 291.354 644.941 295.221C650.977 299.029 655.605 304.391 658.828 311.305C662.051 318.219 663.662 326.246 663.662 335.387V341.012H590.01V329.059H656.104L648.369 340.133V334.244C648.369 327.154 647.285 321.295 645.117 316.666C643.008 312.037 640.078 308.609 636.328 306.383C632.578 304.098 628.271 302.955 623.408 302.955C618.545 302.955 614.18 304.156 610.312 306.559C606.445 308.902 603.398 312.418 601.172 317.105C598.945 321.734 597.832 327.447 597.832 334.244V340.133C597.832 346.578 598.916 352.086 601.084 356.656C603.311 361.227 606.445 364.742 610.488 367.203C614.531 369.605 619.307 370.807 624.814 370.807C628.682 370.807 632.139 370.221 635.186 369.049C638.232 367.877 640.781 366.266 642.832 364.215C644.883 362.164 646.348 359.82 647.227 357.184L647.49 356.393H662.52L662.344 357.271C661.582 361.021 660.117 364.537 657.949 367.818C655.84 371.1 653.115 374 649.775 376.52C646.436 378.98 642.627 380.914 638.35 382.32C634.072 383.668 629.443 384.342 624.463 384.342Z" fill="url(#paint7_linear_117_1063)" fill-opacity="0.6" style=""/>
<path d="M12.7441 128.584V49.834H0V37.1777H12.7441V25.9277C12.7441 20.0684 13.6523 15.2344 15.4688 11.4258C17.3438 7.55859 20.127 4.6875 23.8184 2.8125C27.5098 0.9375 32.168 0 37.793 0C39.4922 0 41.1914 0.0585938 42.8906 0.175781C44.5898 0.292969 45.9961 0.439453 47.1094 0.615234V13.0078C46.1719 12.8906 45.1172 12.8027 43.9453 12.7441C42.832 12.6855 41.6895 12.6562 40.5176 12.6562C36.2988 12.6562 33.1348 13.7695 31.0254 15.9961C28.916 18.1641 27.8613 21.5039 27.8613 26.0156V37.1777H46.6699V49.834H28.0371V128.584H12.7441Z" fill="white" style="fill:white;fill-opacity:1;"/>
<path d="M12.7441 128.584V49.834H0V37.1777H12.7441V25.9277C12.7441 20.0684 13.6523 15.2344 15.4688 11.4258C17.3438 7.55859 20.127 4.6875 23.8184 2.8125C27.5098 0.9375 32.168 0 37.793 0C39.4922 0 41.1914 0.0585938 42.8906 0.175781C44.5898 0.292969 45.9961 0.439453 47.1094 0.615234V13.0078C46.1719 12.8906 45.1172 12.8027 43.9453 12.7441C42.832 12.6855 41.6895 12.6562 40.5176 12.6562C36.2988 12.6562 33.1348 13.7695 31.0254 15.9961C28.916 18.1641 27.8613 21.5039 27.8613 26.0156V37.1777H46.6699V49.834H28.0371V128.584H12.7441Z" fill="url(#paint8_linear_117_1063)" fill-opacity="0.6" style=""/>
<path d="M63.457 128.584V37.1777H78.75V128.584H63.457ZM71.1035 21.709C68.4668 21.709 66.2109 20.7715 64.3359 18.8965C62.4609 17.0215 61.5234 14.7656 61.5234 12.1289C61.5234 9.43359 62.4609 7.17773 64.3359 5.36133C66.2109 3.48633 68.4668 2.54883 71.1035 2.54883C73.7988 2.54883 76.0547 3.48633 77.8711 5.36133C79.7461 7.17773 80.6836 9.43359 80.6836 12.1289C80.6836 14.7656 79.7461 17.0215 77.8711 18.8965C76.0547 20.7715 73.7988 21.709 71.1035 21.709Z" fill="white" style="fill:white;fill-opacity:1;"/>
<path d="M63.457 128.584V37.1777H78.75V128.584H63.457ZM71.1035 21.709C68.4668 21.709 66.2109 20.7715 64.3359 18.8965C62.4609 17.0215 61.5234 14.7656 61.5234 12.1289C61.5234 9.43359 62.4609 7.17773 64.3359 5.36133C66.2109 3.48633 68.4668 2.54883 71.1035 2.54883C73.7988 2.54883 76.0547 3.48633 77.8711 5.36133C79.7461 7.17773 80.6836 9.43359 80.6836 12.1289C80.6836 14.7656 79.7461 17.0215 77.8711 18.8965C76.0547 20.7715 73.7988 21.709 71.1035 21.709Z" fill="url(#paint9_linear_117_1063)" fill-opacity="0.6" style=""/>
<path d="M100.371 128.584V1.75781H115.664V128.584H100.371Z" fill="white" style="fill:white;fill-opacity:1;"/>
<path d="M100.371 128.584V1.75781H115.664V128.584H100.371Z" fill="url(#paint10_linear_117_1063)" fill-opacity="0.6" style=""/>
<path d="M173.936 130.342C165.205 130.342 157.676 128.408 151.348 124.541C145.078 120.674 140.244 115.225 136.846 108.193C133.506 101.104 131.836 92.7832 131.836 83.2324V83.1445C131.836 73.7109 133.535 65.4199 136.934 58.2715C140.332 51.0645 145.107 45.4688 151.26 41.4844C157.412 37.4414 164.648 35.4199 172.969 35.4199C181.289 35.4199 188.438 37.3535 194.414 41.2207C200.449 45.0293 205.078 50.3906 208.301 57.3047C211.523 64.2188 213.135 72.2461 213.135 81.3867V87.0117H139.482V75.0586H205.576L197.842 86.1328V80.2441C197.842 73.1543 196.758 67.2949 194.59 62.666C192.48 58.0371 189.551 54.6094 185.801 52.3828C182.051 50.0977 177.744 48.9551 172.881 48.9551C168.018 48.9551 163.652 50.1562 159.785 52.5586C155.918 54.9023 152.871 58.418 150.645 63.1055C148.418 67.7344 147.305 73.4473 147.305 80.2441V86.1328C147.305 92.5781 148.389 98.0859 150.557 102.656C152.783 107.227 155.918 110.742 159.961 113.203C164.004 115.605 168.779 116.807 174.287 116.807C178.154 116.807 181.611 116.221 184.658 115.049C187.705 113.877 190.254 112.266 192.305 110.215C194.355 108.164 195.82 105.82 196.699 103.184L196.963 102.393H211.992L211.816 103.271C211.055 107.021 209.59 110.537 207.422 113.818C205.312 117.1 202.588 120 199.248 122.52C195.908 124.98 192.1 126.914 187.822 128.32C183.545 129.668 178.916 130.342 173.936 130.342Z" fill="white" style="fill:white;fill-opacity:1;"/>
<path d="M173.936 130.342C165.205 130.342 157.676 128.408 151.348 124.541C145.078 120.674 140.244 115.225 136.846 108.193C133.506 101.104 131.836 92.7832 131.836 83.2324V83.1445C131.836 73.7109 133.535 65.4199 136.934 58.2715C140.332 51.0645 145.107 45.4688 151.26 41.4844C157.412 37.4414 164.648 35.4199 172.969 35.4199C181.289 35.4199 188.438 37.3535 194.414 41.2207C200.449 45.0293 205.078 50.3906 208.301 57.3047C211.523 64.2188 213.135 72.2461 213.135 81.3867V87.0117H139.482V75.0586H205.576L197.842 86.1328V80.2441C197.842 73.1543 196.758 67.2949 194.59 62.666C192.48 58.0371 189.551 54.6094 185.801 52.3828C182.051 50.0977 177.744 48.9551 172.881 48.9551C168.018 48.9551 163.652 50.1562 159.785 52.5586C155.918 54.9023 152.871 58.418 150.645 63.1055C148.418 67.7344 147.305 73.4473 147.305 80.2441V86.1328C147.305 92.5781 148.389 98.0859 150.557 102.656C152.783 107.227 155.918 110.742 159.961 113.203C164.004 115.605 168.779 116.807 174.287 116.807C178.154 116.807 181.611 116.221 184.658 115.049C187.705 113.877 190.254 112.266 192.305 110.215C194.355 108.164 195.82 105.82 196.699 103.184L196.963 102.393H211.992L211.816 103.271C211.055 107.021 209.59 110.537 207.422 113.818C205.312 117.1 202.588 120 199.248 122.52C195.908 124.98 192.1 126.914 187.822 128.32C183.545 129.668 178.916 130.342 173.936 130.342Z" fill="url(#paint11_linear_117_1063)" fill-opacity="0.6" style=""/>
<path d="M229.131 84.2871V70.0488H285.381V84.2871H229.131Z" fill="white" style="fill:white;fill-opacity:1;"/>
<path d="M229.131 84.2871V70.0488H285.381V84.2871H229.131Z" fill="url(#paint12_linear_117_1063)" fill-opacity="0.6" style=""/>
<path d="M305.771 128.584V37.1777H321.064V50.1855H321.416C323.877 45.9082 327.451 42.3926 332.139 39.6387C336.826 36.8262 342.627 35.4199 349.541 35.4199C359.561 35.4199 367.324 38.4668 372.832 44.5605C378.398 50.5957 381.182 58.8281 381.182 69.2578V128.584H365.889V71.9824C365.889 64.541 364.131 58.8574 360.615 54.9316C357.158 50.9473 351.914 48.9551 344.883 48.9551C340.078 48.9551 335.889 50.0391 332.314 52.207C328.74 54.3164 325.957 57.3047 323.965 61.1719C322.031 65.0391 321.064 69.5801 321.064 74.7949V128.584H305.771Z" fill="white" style="fill:white;fill-opacity:1;"/>
<path d="M305.771 128.584V37.1777H321.064V50.1855H321.416C323.877 45.9082 327.451 42.3926 332.139 39.6387C336.826 36.8262 342.627 35.4199 349.541 35.4199C359.561 35.4199 367.324 38.4668 372.832 44.5605C378.398 50.5957 381.182 58.8281 381.182 69.2578V128.584H365.889V71.9824C365.889 64.541 364.131 58.8574 360.615 54.9316C357.158 50.9473 351.914 48.9551 344.883 48.9551C340.078 48.9551 335.889 50.0391 332.314 52.207C328.74 54.3164 325.957 57.3047 323.965 61.1719C322.031 65.0391 321.064 69.5801 321.064 74.7949V128.584H305.771Z" fill="url(#paint13_linear_117_1063)" fill-opacity="0.6" style=""/>
<path d="M427.412 130.342C421.377 130.342 416.074 129.199 411.504 126.914C406.934 124.629 403.359 121.406 400.781 117.246C398.262 113.086 397.002 108.252 397.002 102.744V102.568C397.002 97.3535 398.291 92.8418 400.869 89.0332C403.506 85.2246 407.285 82.207 412.207 79.9805C417.188 77.7539 423.164 76.4355 430.137 76.0254L463.975 74.0918V85.957L431.895 87.8906C425.801 88.2422 421.055 89.707 417.656 92.2852C414.316 94.8633 412.646 98.291 412.646 102.568V102.744C412.646 107.139 414.287 110.625 417.568 113.203C420.908 115.781 425.332 117.07 430.84 117.07C435.645 117.07 439.951 116.074 443.76 114.082C447.627 112.031 450.674 109.248 452.9 105.732C455.186 102.217 456.328 98.2617 456.328 93.8672V66.8848C456.328 61.3184 454.57 56.9531 451.055 53.7891C447.598 50.5664 442.676 48.9551 436.289 48.9551C430.43 48.9551 425.684 50.2441 422.051 52.8223C418.477 55.3418 416.25 58.6523 415.371 62.7539L415.195 63.5449H400.43L400.518 62.5781C400.986 57.5391 402.686 52.9688 405.615 48.8672C408.604 44.7656 412.705 41.5137 417.92 39.1113C423.135 36.6504 429.316 35.4199 436.465 35.4199C443.672 35.4199 449.883 36.6504 455.098 39.1113C460.371 41.5723 464.443 45.0586 467.314 49.5703C470.186 54.0234 471.621 59.2969 471.621 65.3906V128.584H456.328V113.73H455.977C454.219 117.07 451.875 120 448.945 122.52C446.016 124.98 442.705 126.914 439.014 128.32C435.381 129.668 431.514 130.342 427.412 130.342Z" fill="white" style="fill:white;fill-opacity:1;"/>
<path d="M427.412 130.342C421.377 130.342 416.074 129.199 411.504 126.914C406.934 124.629 403.359 121.406 400.781 117.246C398.262 113.086 397.002 108.252 397.002 102.744V102.568C397.002 97.3535 398.291 92.8418 400.869 89.0332C403.506 85.2246 407.285 82.207 412.207 79.9805C417.188 77.7539 423.164 76.4355 430.137 76.0254L463.975 74.0918V85.957L431.895 87.8906C425.801 88.2422 421.055 89.707 417.656 92.2852C414.316 94.8633 412.646 98.291 412.646 102.568V102.744C412.646 107.139 414.287 110.625 417.568 113.203C420.908 115.781 425.332 117.07 430.84 117.07C435.645 117.07 439.951 116.074 443.76 114.082C447.627 112.031 450.674 109.248 452.9 105.732C455.186 102.217 456.328 98.2617 456.328 93.8672V66.8848C456.328 61.3184 454.57 56.9531 451.055 53.7891C447.598 50.5664 442.676 48.9551 436.289 48.9551C430.43 48.9551 425.684 50.2441 422.051 52.8223C418.477 55.3418 416.25 58.6523 415.371 62.7539L415.195 63.5449H400.43L400.518 62.5781C400.986 57.5391 402.686 52.9688 405.615 48.8672C408.604 44.7656 412.705 41.5137 417.92 39.1113C423.135 36.6504 429.316 35.4199 436.465 35.4199C443.672 35.4199 449.883 36.6504 455.098 39.1113C460.371 41.5723 464.443 45.0586 467.314 49.5703C470.186 54.0234 471.621 59.2969 471.621 65.3906V128.584H456.328V113.73H455.977C454.219 117.07 451.875 120 448.945 122.52C446.016 124.98 442.705 126.914 439.014 128.32C435.381 129.668 431.514 130.342 427.412 130.342Z" fill="url(#paint14_linear_117_1063)" fill-opacity="0.6" style=""/>
<path d="M491.045 128.584V37.1777H506.338V50.5371H506.689C508.74 46.0254 511.963 42.3926 516.357 39.6387C520.752 36.8262 525.879 35.4199 531.738 35.4199C535.898 35.4199 539.648 36.123 542.988 37.5293C546.387 38.877 549.316 40.8691 551.777 43.5059C554.238 46.084 556.113 49.248 557.402 52.998H557.754C559.453 49.3066 561.709 46.1719 564.521 43.5938C567.393 40.957 570.674 38.9355 574.365 37.5293C578.115 36.123 582.129 35.4199 586.406 35.4199C592.441 35.4199 597.686 36.6797 602.139 39.1992C606.592 41.6602 610.049 45.1465 612.51 49.6582C614.971 54.1113 616.201 59.3848 616.201 65.4785V128.584H600.908V68.9941C600.908 64.7754 600.146 61.1719 598.623 58.1836C597.158 55.1953 595.02 52.9102 592.207 51.3281C589.395 49.7461 585.967 48.9551 581.924 48.9551C577.881 48.9551 574.307 49.8926 571.201 51.7676C568.096 53.584 565.664 56.1328 563.906 59.4141C562.148 62.6367 561.27 66.3281 561.27 70.4883V128.584H545.977V67.3242C545.977 63.6328 545.186 60.4102 543.604 57.6562C542.08 54.9023 539.912 52.7637 537.1 51.2402C534.346 49.7168 531.064 48.9551 527.256 48.9551C523.213 48.9551 519.609 49.9512 516.445 51.9434C513.34 53.877 510.879 56.5137 509.062 59.8535C507.246 63.1934 506.338 67.002 506.338 71.2793V128.584H491.045Z" fill="white" style="fill:white;fill-opacity:1;"/>
<path d="M491.045 128.584V37.1777H506.338V50.5371H506.689C508.74 46.0254 511.963 42.3926 516.357 39.6387C520.752 36.8262 525.879 35.4199 531.738 35.4199C535.898 35.4199 539.648 36.123 542.988 37.5293C546.387 38.877 549.316 40.8691 551.777 43.5059C554.238 46.084 556.113 49.248 557.402 52.998H557.754C559.453 49.3066 561.709 46.1719 564.521 43.5938C567.393 40.957 570.674 38.9355 574.365 37.5293C578.115 36.123 582.129 35.4199 586.406 35.4199C592.441 35.4199 597.686 36.6797 602.139 39.1992C606.592 41.6602 610.049 45.1465 612.51 49.6582C614.971 54.1113 616.201 59.3848 616.201 65.4785V128.584H600.908V68.9941C600.908 64.7754 600.146 61.1719 598.623 58.1836C597.158 55.1953 595.02 52.9102 592.207 51.3281C589.395 49.7461 585.967 48.9551 581.924 48.9551C577.881 48.9551 574.307 49.8926 571.201 51.7676C568.096 53.584 565.664 56.1328 563.906 59.4141C562.148 62.6367 561.27 66.3281 561.27 70.4883V128.584H545.977V67.3242C545.977 63.6328 545.186 60.4102 543.604 57.6562C542.08 54.9023 539.912 52.7637 537.1 51.2402C534.346 49.7168 531.064 48.9551 527.256 48.9551C523.213 48.9551 519.609 49.9512 516.445 51.9434C513.34 53.877 510.879 56.5137 509.062 59.8535C507.246 63.1934 506.338 67.002 506.338 71.2793V128.584H491.045Z" fill="url(#paint15_linear_117_1063)" fill-opacity="0.6" style=""/>
<path d="M673.33 130.342C664.6 130.342 657.07 128.408 650.742 124.541C644.473 120.674 639.639 115.225 636.24 108.193C632.9 101.104 631.23 92.7832 631.23 83.2324V83.1445C631.23 73.7109 632.93 65.4199 636.328 58.2715C639.727 51.0645 644.502 45.4688 650.654 41.4844C656.807 37.4414 664.043 35.4199 672.363 35.4199C680.684 35.4199 687.832 37.3535 693.809 41.2207C699.844 45.0293 704.473 50.3906 707.695 57.3047C710.918 64.2188 712.529 72.2461 712.529 81.3867V87.0117H638.877V75.0586H704.971L697.236 86.1328V80.2441C697.236 73.1543 696.152 67.2949 693.984 62.666C691.875 58.0371 688.945 54.6094 685.195 52.3828C681.445 50.0977 677.139 48.9551 672.275 48.9551C667.412 48.9551 663.047 50.1562 659.18 52.5586C655.312 54.9023 652.266 58.418 650.039 63.1055C647.812 67.7344 646.699 73.4473 646.699 80.2441V86.1328C646.699 92.5781 647.783 98.0859 649.951 102.656C652.178 107.227 655.312 110.742 659.355 113.203C663.398 115.605 668.174 116.807 673.682 116.807C677.549 116.807 681.006 116.221 684.053 115.049C687.1 113.877 689.648 112.266 691.699 110.215C693.75 108.164 695.215 105.82 696.094 103.184L696.357 102.393H711.387L711.211 103.271C710.449 107.021 708.984 110.537 706.816 113.818C704.707 117.1 701.982 120 698.643 122.52C695.303 124.98 691.494 126.914 687.217 128.32C682.939 129.668 678.311 130.342 673.33 130.342Z" fill="white" style="fill:white;fill-opacity:1;"/>
<path d="M673.33 130.342C664.6 130.342 657.07 128.408 650.742 124.541C644.473 120.674 639.639 115.225 636.24 108.193C632.9 101.104 631.23 92.7832 631.23 83.2324V83.1445C631.23 73.7109 632.93 65.4199 636.328 58.2715C639.727 51.0645 644.502 45.4688 650.654 41.4844C656.807 37.4414 664.043 35.4199 672.363 35.4199C680.684 35.4199 687.832 37.3535 693.809 41.2207C699.844 45.0293 704.473 50.3906 707.695 57.3047C710.918 64.2188 712.529 72.2461 712.529 81.3867V87.0117H638.877V75.0586H704.971L697.236 86.1328V80.2441C697.236 73.1543 696.152 67.2949 693.984 62.666C691.875 58.0371 688.945 54.6094 685.195 52.3828C681.445 50.0977 677.139 48.9551 672.275 48.9551C667.412 48.9551 663.047 50.1562 659.18 52.5586C655.312 54.9023 652.266 58.418 650.039 63.1055C647.812 67.7344 646.699 73.4473 646.699 80.2441V86.1328C646.699 92.5781 647.783 98.0859 649.951 102.656C652.178 107.227 655.312 110.742 659.355 113.203C663.398 115.605 668.174 116.807 673.682 116.807C677.549 116.807 681.006 116.221 684.053 115.049C687.1 113.877 689.648 112.266 691.699 110.215C693.75 108.164 695.215 105.82 696.094 103.184L696.357 102.393H711.387L711.211 103.271C710.449 107.021 708.984 110.537 706.816 113.818C704.707 117.1 701.982 120 698.643 122.52C695.303 124.98 691.494 126.914 687.217 128.32C682.939 129.668 678.311 130.342 673.33 130.342Z" fill="url(#paint16_linear_117_1063)" fill-opacity="0.6" style=""/>
<path d="M14.8535 634.584V555.834H2.10938V543.178H14.8535V531.928C14.8535 526.068 15.7617 521.234 17.5781 517.426C19.4531 513.559 22.2363 510.688 25.9277 508.812C29.6191 506.938 34.2773 506 39.9023 506C41.6016 506 43.3008 506.059 45 506.176C46.6992 506.293 48.1055 506.439 49.2188 506.615V519.008C48.2812 518.891 47.2266 518.803 46.0547 518.744C44.9414 518.686 43.7988 518.656 42.627 518.656C38.4082 518.656 35.2441 519.77 33.1348 521.996C31.0254 524.164 29.9707 527.504 29.9707 532.016V543.178H48.7793V555.834H30.1465V634.584H14.8535Z" fill="white" style="fill:white;fill-opacity:1;"/>
<path d="M14.8535 634.584V555.834H2.10938V543.178H14.8535V531.928C14.8535 526.068 15.7617 521.234 17.5781 517.426C19.4531 513.559 22.2363 510.688 25.9277 508.812C29.6191 506.938 34.2773 506 39.9023 506C41.6016 506 43.3008 506.059 45 506.176C46.6992 506.293 48.1055 506.439 49.2188 506.615V519.008C48.2812 518.891 47.2266 518.803 46.0547 518.744C44.9414 518.686 43.7988 518.656 42.627 518.656C38.4082 518.656 35.2441 519.77 33.1348 521.996C31.0254 524.164 29.9707 527.504 29.9707 532.016V543.178H48.7793V555.834H30.1465V634.584H14.8535Z" fill="url(#paint17_linear_117_1063)" fill-opacity="0.6" style=""/>
<path d="M65.5664 634.584V543.178H80.8594V634.584H65.5664ZM73.2129 527.709C70.5762 527.709 68.3203 526.771 66.4453 524.896C64.5703 523.021 63.6328 520.766 63.6328 518.129C63.6328 515.434 64.5703 513.178 66.4453 511.361C68.3203 509.486 70.5762 508.549 73.2129 508.549C75.9082 508.549 78.1641 509.486 79.9805 511.361C81.8555 513.178 82.793 515.434 82.793 518.129C82.793 520.766 81.8555 523.021 79.9805 524.896C78.1641 526.771 75.9082 527.709 73.2129 527.709Z" fill="white" style="fill:white;fill-opacity:1;"/>
<path d="M65.5664 634.584V543.178H80.8594V634.584H65.5664ZM73.2129 527.709C70.5762 527.709 68.3203 526.771 66.4453 524.896C64.5703 523.021 63.6328 520.766 63.6328 518.129C63.6328 515.434 64.5703 513.178 66.4453 511.361C68.3203 509.486 70.5762 508.549 73.2129 508.549C75.9082 508.549 78.1641 509.486 79.9805 511.361C81.8555 513.178 82.793 515.434 82.793 518.129C82.793 520.766 81.8555 523.021 79.9805 524.896C78.1641 526.771 75.9082 527.709 73.2129 527.709Z" fill="url(#paint18_linear_117_1063)" fill-opacity="0.6" style=""/>
<path d="M102.48 634.584V507.758H117.773V634.584H102.48Z" fill="white" style="fill:white;fill-opacity:1;"/>
<path d="M102.48 634.584V507.758H117.773V634.584H102.48Z" fill="url(#paint19_linear_117_1063)" fill-opacity="0.6" style=""/>
<path d="M176.045 636.342C167.314 636.342 159.785 634.408 153.457 630.541C147.188 626.674 142.354 621.225 138.955 614.193C135.615 607.104 133.945 598.783 133.945 589.232V589.145C133.945 579.711 135.645 571.42 139.043 564.271C142.441 557.064 147.217 551.469 153.369 547.484C159.521 543.441 166.758 541.42 175.078 541.42C183.398 541.42 190.547 543.354 196.523 547.221C202.559 551.029 207.188 556.391 210.41 563.305C213.633 570.219 215.244 578.246 215.244 587.387V593.012H141.592V581.059H207.686L199.951 592.133V586.244C199.951 579.154 198.867 573.295 196.699 568.666C194.59 564.037 191.66 560.609 187.91 558.383C184.16 556.098 179.854 554.955 174.99 554.955C170.127 554.955 165.762 556.156 161.895 558.559C158.027 560.902 154.98 564.418 152.754 569.105C150.527 573.734 149.414 579.447 149.414 586.244V592.133C149.414 598.578 150.498 604.086 152.666 608.656C154.893 613.227 158.027 616.742 162.07 619.203C166.113 621.605 170.889 622.807 176.396 622.807C180.264 622.807 183.721 622.221 186.768 621.049C189.814 619.877 192.363 618.266 194.414 616.215C196.465 614.164 197.93 611.82 198.809 609.184L199.072 608.393H214.102L213.926 609.271C213.164 613.021 211.699 616.537 209.531 619.818C207.422 623.1 204.697 626 201.357 628.52C198.018 630.98 194.209 632.914 189.932 634.32C185.654 635.668 181.025 636.342 176.045 636.342Z" fill="white" style="fill:white;fill-opacity:1;"/>
<path d="M176.045 636.342C167.314 636.342 159.785 634.408 153.457 630.541C147.188 626.674 142.354 621.225 138.955 614.193C135.615 607.104 133.945 598.783 133.945 589.232V589.145C133.945 579.711 135.645 571.42 139.043 564.271C142.441 557.064 147.217 551.469 153.369 547.484C159.521 543.441 166.758 541.42 175.078 541.42C183.398 541.42 190.547 543.354 196.523 547.221C202.559 551.029 207.188 556.391 210.41 563.305C213.633 570.219 215.244 578.246 215.244 587.387V593.012H141.592V581.059H207.686L199.951 592.133V586.244C199.951 579.154 198.867 573.295 196.699 568.666C194.59 564.037 191.66 560.609 187.91 558.383C184.16 556.098 179.854 554.955 174.99 554.955C170.127 554.955 165.762 556.156 161.895 558.559C158.027 560.902 154.98 564.418 152.754 569.105C150.527 573.734 149.414 579.447 149.414 586.244V592.133C149.414 598.578 150.498 604.086 152.666 608.656C154.893 613.227 158.027 616.742 162.07 619.203C166.113 621.605 170.889 622.807 176.396 622.807C180.264 622.807 183.721 622.221 186.768 621.049C189.814 619.877 192.363 618.266 194.414 616.215C196.465 614.164 197.93 611.82 198.809 609.184L199.072 608.393H214.102L213.926 609.271C213.164 613.021 211.699 616.537 209.531 619.818C207.422 623.1 204.697 626 201.357 628.52C198.018 630.98 194.209 632.914 189.932 634.32C185.654 635.668 181.025 636.342 176.045 636.342Z" fill="url(#paint20_linear_117_1063)" fill-opacity="0.6" style=""/>
<path d="M230.713 634.584V543.178H246.006V556.186H246.357C248.818 551.908 252.393 548.393 257.08 545.639C261.768 542.826 267.568 541.42 274.482 541.42C284.502 541.42 292.266 544.467 297.773 550.561C303.34 556.596 306.123 564.828 306.123 575.258V634.584H290.83V577.982C290.83 570.541 289.072 564.857 285.557 560.932C282.1 556.947 276.855 554.955 269.824 554.955C265.02 554.955 260.83 556.039 257.256 558.207C253.682 560.316 250.898 563.305 248.906 567.172C246.973 571.039 246.006 575.58 246.006 580.795V634.584H230.713Z" fill="white" style="fill:white;fill-opacity:1;"/>
<path d="M230.713 634.584V543.178H246.006V556.186H246.357C248.818 551.908 252.393 548.393 257.08 545.639C261.768 542.826 267.568 541.42 274.482 541.42C284.502 541.42 292.266 544.467 297.773 550.561C303.34 556.596 306.123 564.828 306.123 575.258V634.584H290.83V577.982C290.83 570.541 289.072 564.857 285.557 560.932C282.1 556.947 276.855 554.955 269.824 554.955C265.02 554.955 260.83 556.039 257.256 558.207C253.682 560.316 250.898 563.305 248.906 567.172C246.973 571.039 246.006 575.58 246.006 580.795V634.584H230.713Z" fill="url(#paint21_linear_117_1063)" fill-opacity="0.6" style=""/>
<path d="M352.354 636.342C346.318 636.342 341.016 635.199 336.445 632.914C331.875 630.629 328.301 627.406 325.723 623.246C323.203 619.086 321.943 614.252 321.943 608.744V608.568C321.943 603.354 323.232 598.842 325.811 595.033C328.447 591.225 332.227 588.207 337.148 585.98C342.129 583.754 348.105 582.436 355.078 582.025L388.916 580.092V591.957L356.836 593.891C350.742 594.242 345.996 595.707 342.598 598.285C339.258 600.863 337.588 604.291 337.588 608.568V608.744C337.588 613.139 339.229 616.625 342.51 619.203C345.85 621.781 350.273 623.07 355.781 623.07C360.586 623.07 364.893 622.074 368.701 620.082C372.568 618.031 375.615 615.248 377.842 611.732C380.127 608.217 381.27 604.262 381.27 599.867V572.885C381.27 567.318 379.512 562.953 375.996 559.789C372.539 556.566 367.617 554.955 361.23 554.955C355.371 554.955 350.625 556.244 346.992 558.822C343.418 561.342 341.191 564.652 340.312 568.754L340.137 569.545H325.371L325.459 568.578C325.928 563.539 327.627 558.969 330.557 554.867C333.545 550.766 337.646 547.514 342.861 545.111C348.076 542.65 354.258 541.42 361.406 541.42C368.613 541.42 374.824 542.65 380.039 545.111C385.312 547.572 389.385 551.059 392.256 555.57C395.127 560.023 396.562 565.297 396.562 571.391V634.584H381.27V619.73H380.918C379.16 623.07 376.816 626 373.887 628.52C370.957 630.98 367.646 632.914 363.955 634.32C360.322 635.668 356.455 636.342 352.354 636.342Z" fill="white" style="fill:white;fill-opacity:1;"/>
<path d="M352.354 636.342C346.318 636.342 341.016 635.199 336.445 632.914C331.875 630.629 328.301 627.406 325.723 623.246C323.203 619.086 321.943 614.252 321.943 608.744V608.568C321.943 603.354 323.232 598.842 325.811 595.033C328.447 591.225 332.227 588.207 337.148 585.98C342.129 583.754 348.105 582.436 355.078 582.025L388.916 580.092V591.957L356.836 593.891C350.742 594.242 345.996 595.707 342.598 598.285C339.258 600.863 337.588 604.291 337.588 608.568V608.744C337.588 613.139 339.229 616.625 342.51 619.203C345.85 621.781 350.273 623.07 355.781 623.07C360.586 623.07 364.893 622.074 368.701 620.082C372.568 618.031 375.615 615.248 377.842 611.732C380.127 608.217 381.27 604.262 381.27 599.867V572.885C381.27 567.318 379.512 562.953 375.996 559.789C372.539 556.566 367.617 554.955 361.23 554.955C355.371 554.955 350.625 556.244 346.992 558.822C343.418 561.342 341.191 564.652 340.312 568.754L340.137 569.545H325.371L325.459 568.578C325.928 563.539 327.627 558.969 330.557 554.867C333.545 550.766 337.646 547.514 342.861 545.111C348.076 542.65 354.258 541.42 361.406 541.42C368.613 541.42 374.824 542.65 380.039 545.111C385.312 547.572 389.385 551.059 392.256 555.57C395.127 560.023 396.562 565.297 396.562 571.391V634.584H381.27V619.73H380.918C379.16 623.07 376.816 626 373.887 628.52C370.957 630.98 367.646 632.914 363.955 634.32C360.322 635.668 356.455 636.342 352.354 636.342Z" fill="url(#paint22_linear_117_1063)" fill-opacity="0.6" style=""/>
<path d="M415.986 634.584V543.178H431.279V556.537H431.631C433.682 552.025 436.904 548.393 441.299 545.639C445.693 542.826 450.82 541.42 456.68 541.42C460.84 541.42 464.59 542.123 467.93 543.529C471.328 544.877 474.258 546.869 476.719 549.506C479.18 552.084 481.055 555.248 482.344 558.998H482.695C484.395 555.307 486.65 552.172 489.463 549.594C492.334 546.957 495.615 544.936 499.307 543.529C503.057 542.123 507.07 541.42 511.348 541.42C517.383 541.42 522.627 542.68 527.08 545.199C531.533 547.66 534.99 551.146 537.451 555.658C539.912 560.111 541.143 565.385 541.143 571.479V634.584H525.85V574.994C525.85 570.775 525.088 567.172 523.564 564.184C522.1 561.195 519.961 558.91 517.148 557.328C514.336 555.746 510.908 554.955 506.865 554.955C502.822 554.955 499.248 555.893 496.143 557.768C493.037 559.584 490.605 562.133 488.848 565.414C487.09 568.637 486.211 572.328 486.211 576.488V634.584H470.918V573.324C470.918 569.633 470.127 566.41 468.545 563.656C467.021 560.902 464.854 558.764 462.041 557.24C459.287 555.717 456.006 554.955 452.197 554.955C448.154 554.955 444.551 555.951 441.387 557.943C438.281 559.877 435.82 562.514 434.004 565.854C432.188 569.193 431.279 573.002 431.279 577.279V634.584H415.986Z" fill="white" style="fill:white;fill-opacity:1;"/>
<path d="M415.986 634.584V543.178H431.279V556.537H431.631C433.682 552.025 436.904 548.393 441.299 545.639C445.693 542.826 450.82 541.42 456.68 541.42C460.84 541.42 464.59 542.123 467.93 543.529C471.328 544.877 474.258 546.869 476.719 549.506C479.18 552.084 481.055 555.248 482.344 558.998H482.695C484.395 555.307 486.65 552.172 489.463 549.594C492.334 546.957 495.615 544.936 499.307 543.529C503.057 542.123 507.07 541.42 511.348 541.42C517.383 541.42 522.627 542.68 527.08 545.199C531.533 547.66 534.99 551.146 537.451 555.658C539.912 560.111 541.143 565.385 541.143 571.479V634.584H525.85V574.994C525.85 570.775 525.088 567.172 523.564 564.184C522.1 561.195 519.961 558.91 517.148 557.328C514.336 555.746 510.908 554.955 506.865 554.955C502.822 554.955 499.248 555.893 496.143 557.768C493.037 559.584 490.605 562.133 488.848 565.414C487.09 568.637 486.211 572.328 486.211 576.488V634.584H470.918V573.324C470.918 569.633 470.127 566.41 468.545 563.656C467.021 560.902 464.854 558.764 462.041 557.24C459.287 555.717 456.006 554.955 452.197 554.955C448.154 554.955 444.551 555.951 441.387 557.943C438.281 559.877 435.82 562.514 434.004 565.854C432.188 569.193 431.279 573.002 431.279 577.279V634.584H415.986Z" fill="url(#paint23_linear_117_1063)" fill-opacity="0.6" style=""/>
<path d="M598.271 636.342C589.541 636.342 582.012 634.408 575.684 630.541C569.414 626.674 564.58 621.225 561.182 614.193C557.842 607.104 556.172 598.783 556.172 589.232V589.145C556.172 579.711 557.871 571.42 561.27 564.271C564.668 557.064 569.443 551.469 575.596 547.484C581.748 543.441 588.984 541.42 597.305 541.42C605.625 541.42 612.773 543.354 618.75 547.221C624.785 551.029 629.414 556.391 632.637 563.305C635.859 570.219 637.471 578.246 637.471 587.387V593.012H563.818V581.059H629.912L622.178 592.133V586.244C622.178 579.154 621.094 573.295 618.926 568.666C616.816 564.037 613.887 560.609 610.137 558.383C606.387 556.098 602.08 554.955 597.217 554.955C592.354 554.955 587.988 556.156 584.121 558.559C580.254 560.902 577.207 564.418 574.98 569.105C572.754 573.734 571.641 579.447 571.641 586.244V592.133C571.641 598.578 572.725 604.086 574.893 608.656C577.119 613.227 580.254 616.742 584.297 619.203C588.34 621.605 593.115 622.807 598.623 622.807C602.49 622.807 605.947 622.221 608.994 621.049C612.041 619.877 614.59 618.266 616.641 616.215C618.691 614.164 620.156 611.82 621.035 609.184L621.299 608.393H636.328L636.152 609.271C635.391 613.021 633.926 616.537 631.758 619.818C629.648 623.1 626.924 626 623.584 628.52C620.244 630.98 616.436 632.914 612.158 634.32C607.881 635.668 603.252 636.342 598.271 636.342Z" fill="white" style="fill:white;fill-opacity:1;"/>
<path d="M598.271 636.342C589.541 636.342 582.012 634.408 575.684 630.541C569.414 626.674 564.58 621.225 561.182 614.193C557.842 607.104 556.172 598.783 556.172 589.232V589.145C556.172 579.711 557.871 571.42 561.27 564.271C564.668 557.064 569.443 551.469 575.596 547.484C581.748 543.441 588.984 541.42 597.305 541.42C605.625 541.42 612.773 543.354 618.75 547.221C624.785 551.029 629.414 556.391 632.637 563.305C635.859 570.219 637.471 578.246 637.471 587.387V593.012H563.818V581.059H629.912L622.178 592.133V586.244C622.178 579.154 621.094 573.295 618.926 568.666C616.816 564.037 613.887 560.609 610.137 558.383C606.387 556.098 602.08 554.955 597.217 554.955C592.354 554.955 587.988 556.156 584.121 558.559C580.254 560.902 577.207 564.418 574.98 569.105C572.754 573.734 571.641 579.447 571.641 586.244V592.133C571.641 598.578 572.725 604.086 574.893 608.656C577.119 613.227 580.254 616.742 584.297 619.203C588.34 621.605 593.115 622.807 598.623 622.807C602.49 622.807 605.947 622.221 608.994 621.049C612.041 619.877 614.59 618.266 616.641 616.215C618.691 614.164 620.156 611.82 621.035 609.184L621.299 608.393H636.328L636.152 609.271C635.391 613.021 633.926 616.537 631.758 619.818C629.648 623.1 626.924 626 623.584 628.52C620.244 630.98 616.436 632.914 612.158 634.32C607.881 635.668 603.252 636.342 598.271 636.342Z" fill="url(#paint24_linear_117_1063)" fill-opacity="0.6" style=""/>
<defs>
<linearGradient id="paint0_linear_117_1063" x1="0" y1="318.171" x2="712.529" y2="318.171" gradientUnits="userSpaceOnUse">
<stop stop-color="white" style="stop-color:white;stop-opacity:1;"/>
<stop offset="0.25" stop-color="#7B4FA9" style="stop-color:#7B4FA9;stop-color:color(display-p3 0.4824 0.3098 0.6627);stop-opacity:1;"/>
<stop offset="0.5" stop-color="#381C56" style="stop-color:#381C56;stop-color:color(display-p3 0.2196 0.1098 0.3373);stop-opacity:1;"/>
<stop offset="0.75" stop-color="#7B4FA9" style="stop-color:#7B4FA9;stop-color:color(display-p3 0.4824 0.3098 0.6627);stop-opacity:1;"/>
<stop offset="1" stop-color="white" style="stop-color:white;stop-opacity:1;"/>
</linearGradient>
<linearGradient id="paint1_linear_117_1063" x1="0" y1="318.171" x2="712.529" y2="318.171" gradientUnits="userSpaceOnUse">
<stop stop-color="white" style="stop-color:white;stop-opacity:1;"/>
<stop offset="0.25" stop-color="#7B4FA9" style="stop-color:#7B4FA9;stop-color:color(display-p3 0.4824 0.3098 0.6627);stop-opacity:1;"/>
<stop offset="0.5" stop-color="#381C56" style="stop-color:#381C56;stop-color:color(display-p3 0.2196 0.1098 0.3373);stop-opacity:1;"/>
<stop offset="0.75" stop-color="#7B4FA9" style="stop-color:#7B4FA9;stop-color:color(display-p3 0.4824 0.3098 0.6627);stop-opacity:1;"/>
<stop offset="1" stop-color="white" style="stop-color:white;stop-opacity:1;"/>
</linearGradient>
<linearGradient id="paint2_linear_117_1063" x1="0" y1="318.171" x2="712.529" y2="318.171" gradientUnits="userSpaceOnUse">
<stop stop-color="white" style="stop-color:white;stop-opacity:1;"/>
<stop offset="0.25" stop-color="#7B4FA9" style="stop-color:#7B4FA9;stop-color:color(display-p3 0.4824 0.3098 0.6627);stop-opacity:1;"/>
<stop offset="0.5" stop-color="#381C56" style="stop-color:#381C56;stop-color:color(display-p3 0.2196 0.1098 0.3373);stop-opacity:1;"/>
<stop offset="0.75" stop-color="#7B4FA9" style="stop-color:#7B4FA9;stop-color:color(display-p3 0.4824 0.3098 0.6627);stop-opacity:1;"/>
<stop offset="1" stop-color="white" style="stop-color:white;stop-opacity:1;"/>
</linearGradient>
<linearGradient id="paint3_linear_117_1063" x1="0" y1="318.171" x2="712.529" y2="318.171" gradientUnits="userSpaceOnUse">
<stop stop-color="white" style="stop-color:white;stop-opacity:1;"/>
<stop offset="0.25" stop-color="#7B4FA9" style="stop-color:#7B4FA9;stop-color:color(display-p3 0.4824 0.3098 0.6627);stop-opacity:1;"/>
<stop offset="0.5" stop-color="#381C56" style="stop-color:#381C56;stop-color:color(display-p3 0.2196 0.1098 0.3373);stop-opacity:1;"/>
<stop offset="0.75" stop-color="#7B4FA9" style="stop-color:#7B4FA9;stop-color:color(display-p3 0.4824 0.3098 0.6627);stop-opacity:1;"/>
<stop offset="1" stop-color="white" style="stop-color:white;stop-opacity:1;"/>
</linearGradient>
<linearGradient id="paint4_linear_117_1063" x1="0" y1="318.171" x2="712.529" y2="318.171" gradientUnits="userSpaceOnUse">
<stop stop-color="white" style="stop-color:white;stop-opacity:1;"/>
<stop offset="0.25" stop-color="#7B4FA9" style="stop-color:#7B4FA9;stop-color:color(display-p3 0.4824 0.3098 0.6627);stop-opacity:1;"/>
<stop offset="0.5" stop-color="#381C56" style="stop-color:#381C56;stop-color:color(display-p3 0.2196 0.1098 0.3373);stop-opacity:1;"/>
<stop offset="0.75" stop-color="#7B4FA9" style="stop-color:#7B4FA9;stop-color:color(display-p3 0.4824 0.3098 0.6627);stop-opacity:1;"/>
<stop offset="1" stop-color="white" style="stop-color:white;stop-opacity:1;"/>
</linearGradient>
<linearGradient id="paint5_linear_117_1063" x1="0" y1="318.171" x2="712.529" y2="318.171" gradientUnits="userSpaceOnUse">
<stop stop-color="white" style="stop-color:white;stop-opacity:1;"/>
<stop offset="0.25" stop-color="#7B4FA9" style="stop-color:#7B4FA9;stop-color:color(display-p3 0.4824 0.3098 0.6627);stop-opacity:1;"/>
<stop offset="0.5" stop-color="#381C56" style="stop-color:#381C56;stop-color:color(display-p3 0.2196 0.1098 0.3373);stop-opacity:1;"/>
<stop offset="0.75" stop-color="#7B4FA9" style="stop-color:#7B4FA9;stop-color:color(display-p3 0.4824 0.3098 0.6627);stop-opacity:1;"/>
<stop offset="1" stop-color="white" style="stop-color:white;stop-opacity:1;"/>
</linearGradient>
<linearGradient id="paint6_linear_117_1063" x1="0" y1="318.171" x2="712.529" y2="318.171" gradientUnits="userSpaceOnUse">
<stop stop-color="white" style="stop-color:white;stop-opacity:1;"/>
<stop offset="0.25" stop-color="#7B4FA9" style="stop-color:#7B4FA9;stop-color:color(display-p3 0.4824 0.3098 0.6627);stop-opacity:1;"/>
<stop offset="0.5" stop-color="#381C56" style="stop-color:#381C56;stop-color:color(display-p3 0.2196 0.1098 0.3373);stop-opacity:1;"/>
<stop offset="0.75" stop-color="#7B4FA9" style="stop-color:#7B4FA9;stop-color:color(display-p3 0.4824 0.3098 0.6627);stop-opacity:1;"/>
<stop offset="1" stop-color="white" style="stop-color:white;stop-opacity:1;"/>
</linearGradient>
<linearGradient id="paint7_linear_117_1063" x1="0" y1="318.171" x2="712.529" y2="318.171" gradientUnits="userSpaceOnUse">
<stop stop-color="white" style="stop-color:white;stop-opacity:1;"/>
<stop offset="0.25" stop-color="#7B4FA9" style="stop-color:#7B4FA9;stop-color:color(display-p3 0.4824 0.3098 0.6627);stop-opacity:1;"/>
<stop offset="0.5" stop-color="#381C56" style="stop-color:#381C56;stop-color:color(display-p3 0.2196 0.1098 0.3373);stop-opacity:1;"/>
<stop offset="0.75" stop-color="#7B4FA9" style="stop-color:#7B4FA9;stop-color:color(display-p3 0.4824 0.3098 0.6627);stop-opacity:1;"/>
<stop offset="1" stop-color="white" style="stop-color:white;stop-opacity:1;"/>
</linearGradient>
<linearGradient id="paint8_linear_117_1063" x1="-2.10938" y1="317.747" x2="718.891" y2="317.747" gradientUnits="userSpaceOnUse">
<stop offset="0.1" stop-color="white" style="stop-color:white;stop-opacity:1;"/>
<stop offset="0.35" stop-color="#7B4FA9" style="stop-color:#7B4FA9;stop-color:color(display-p3 0.4824 0.3098 0.6627);stop-opacity:1;"/>
<stop offset="0.6" stop-color="#381C56" style="stop-color:#381C56;stop-color:color(display-p3 0.2196 0.1098 0.3373);stop-opacity:1;"/>
<stop offset="0.85" stop-color="#7B4FA9" style="stop-color:#7B4FA9;stop-color:color(display-p3 0.4824 0.3098 0.6627);stop-opacity:1;"/>
</linearGradient>
<linearGradient id="paint9_linear_117_1063" x1="-2.10938" y1="317.747" x2="718.891" y2="317.747" gradientUnits="userSpaceOnUse">
<stop offset="0.1" stop-color="white" style="stop-color:white;stop-opacity:1;"/>
<stop offset="0.35" stop-color="#7B4FA9" style="stop-color:#7B4FA9;stop-color:color(display-p3 0.4824 0.3098 0.6627);stop-opacity:1;"/>
<stop offset="0.6" stop-color="#381C56" style="stop-color:#381C56;stop-color:color(display-p3 0.2196 0.1098 0.3373);stop-opacity:1;"/>
<stop offset="0.85" stop-color="#7B4FA9" style="stop-color:#7B4FA9;stop-color:color(display-p3 0.4824 0.3098 0.6627);stop-opacity:1;"/>
</linearGradient>
<linearGradient id="paint10_linear_117_1063" x1="-2.10938" y1="317.747" x2="718.891" y2="317.747" gradientUnits="userSpaceOnUse">
<stop offset="0.1" stop-color="white" style="stop-color:white;stop-opacity:1;"/>
<stop offset="0.35" stop-color="#7B4FA9" style="stop-color:#7B4FA9;stop-color:color(display-p3 0.4824 0.3098 0.6627);stop-opacity:1;"/>
<stop offset="0.6" stop-color="#381C56" style="stop-color:#381C56;stop-color:color(display-p3 0.2196 0.1098 0.3373);stop-opacity:1;"/>
<stop offset="0.85" stop-color="#7B4FA9" style="stop-color:#7B4FA9;stop-color:color(display-p3 0.4824 0.3098 0.6627);stop-opacity:1;"/>
</linearGradient>
<linearGradient id="paint11_linear_117_1063" x1="-2.10938" y1="317.747" x2="718.891" y2="317.747" gradientUnits="userSpaceOnUse">
<stop offset="0.1" stop-color="white" style="stop-color:white;stop-opacity:1;"/>
<stop offset="0.35" stop-color="#7B4FA9" style="stop-color:#7B4FA9;stop-color:color(display-p3 0.4824 0.3098 0.6627);stop-opacity:1;"/>
<stop offset="0.6" stop-color="#381C56" style="stop-color:#381C56;stop-color:color(display-p3 0.2196 0.1098 0.3373);stop-opacity:1;"/>
<stop offset="0.85" stop-color="#7B4FA9" style="stop-color:#7B4FA9;stop-color:color(display-p3 0.4824 0.3098 0.6627);stop-opacity:1;"/>
</linearGradient>
<linearGradient id="paint12_linear_117_1063" x1="-2.10938" y1="317.747" x2="718.891" y2="317.747" gradientUnits="userSpaceOnUse">
<stop offset="0.1" stop-color="white" style="stop-color:white;stop-opacity:1;"/>
<stop offset="0.35" stop-color="#7B4FA9" style="stop-color:#7B4FA9;stop-color:color(display-p3 0.4824 0.3098 0.6627);stop-opacity:1;"/>
<stop offset="0.6" stop-color="#381C56" style="stop-color:#381C56;stop-color:color(display-p3 0.2196 0.1098 0.3373);stop-opacity:1;"/>
<stop offset="0.85" stop-color="#7B4FA9" style="stop-color:#7B4FA9;stop-color:color(display-p3 0.4824 0.3098 0.6627);stop-opacity:1;"/>
</linearGradient>
<linearGradient id="paint13_linear_117_1063" x1="-2.10938" y1="317.747" x2="718.891" y2="317.747" gradientUnits="userSpaceOnUse">
<stop offset="0.1" stop-color="white" style="stop-color:white;stop-opacity:1;"/>
<stop offset="0.35" stop-color="#7B4FA9" style="stop-color:#7B4FA9;stop-color:color(display-p3 0.4824 0.3098 0.6627);stop-opacity:1;"/>
<stop offset="0.6" stop-color="#381C56" style="stop-color:#381C56;stop-color:color(display-p3 0.2196 0.1098 0.3373);stop-opacity:1;"/>
<stop offset="0.85" stop-color="#7B4FA9" style="stop-color:#7B4FA9;stop-color:color(display-p3 0.4824 0.3098 0.6627);stop-opacity:1;"/>
</linearGradient>
<linearGradient id="paint14_linear_117_1063" x1="-2.10938" y1="317.747" x2="718.891" y2="317.747" gradientUnits="userSpaceOnUse">
<stop offset="0.1" stop-color="white" style="stop-color:white;stop-opacity:1;"/>
<stop offset="0.35" stop-color="#7B4FA9" style="stop-color:#7B4FA9;stop-color:color(display-p3 0.4824 0.3098 0.6627);stop-opacity:1;"/>
<stop offset="0.6" stop-color="#381C56" style="stop-color:#381C56;stop-color:color(display-p3 0.2196 0.1098 0.3373);stop-opacity:1;"/>
<stop offset="0.85" stop-color="#7B4FA9" style="stop-color:#7B4FA9;stop-color:color(display-p3 0.4824 0.3098 0.6627);stop-opacity:1;"/>
</linearGradient>
<linearGradient id="paint15_linear_117_1063" x1="-2.10938" y1="317.747" x2="718.891" y2="317.747" gradientUnits="userSpaceOnUse">
<stop offset="0.1" stop-color="white" style="stop-color:white;stop-opacity:1;"/>
<stop offset="0.35" stop-color="#7B4FA9" style="stop-color:#7B4FA9;stop-color:color(display-p3 0.4824 0.3098 0.6627);stop-opacity:1;"/>
<stop offset="0.6" stop-color="#381C56" style="stop-color:#381C56;stop-color:color(display-p3 0.2196 0.1098 0.3373);stop-opacity:1;"/>
<stop offset="0.85" stop-color="#7B4FA9" style="stop-color:#7B4FA9;stop-color:color(display-p3 0.4824 0.3098 0.6627);stop-opacity:1;"/>
</linearGradient>
<linearGradient id="paint16_linear_117_1063" x1="-2.10938" y1="317.747" x2="718.891" y2="317.747" gradientUnits="userSpaceOnUse">
<stop offset="0.1" stop-color="white" style="stop-color:white;stop-opacity:1;"/>
<stop offset="0.35" stop-color="#7B4FA9" style="stop-color:#7B4FA9;stop-color:color(display-p3 0.4824 0.3098 0.6627);stop-opacity:1;"/>
<stop offset="0.6" stop-color="#381C56" style="stop-color:#381C56;stop-color:color(display-p3 0.2196 0.1098 0.3373);stop-opacity:1;"/>
<stop offset="0.85" stop-color="#7B4FA9" style="stop-color:#7B4FA9;stop-color:color(display-p3 0.4824 0.3098 0.6627);stop-opacity:1;"/>
</linearGradient>
<linearGradient id="paint17_linear_117_1063" x1="2.10938" y1="571.171" x2="637.471" y2="571.171" gradientUnits="userSpaceOnUse">
<stop stop-color="white" style="stop-color:white;stop-opacity:1;"/>
<stop offset="0.15" stop-color="#7B4FA9" style="stop-color:#7B4FA9;stop-color:color(display-p3 0.4824 0.3098 0.6627);stop-opacity:1;"/>
<stop offset="0.4" stop-color="#381C56" style="stop-color:#381C56;stop-color:color(display-p3 0.2196 0.1098 0.3373);stop-opacity:1;"/>
<stop offset="0.65" stop-color="#7B4FA9" style="stop-color:#7B4FA9;stop-color:color(display-p3 0.4824 0.3098 0.6627);stop-opacity:1;"/>
<stop offset="0.9" stop-color="white" style="stop-color:white;stop-opacity:1;"/>
</linearGradient>
<linearGradient id="paint18_linear_117_1063" x1="2.10938" y1="571.171" x2="637.471" y2="571.171" gradientUnits="userSpaceOnUse">
<stop stop-color="white" style="stop-color:white;stop-opacity:1;"/>
<stop offset="0.15" stop-color="#7B4FA9" style="stop-color:#7B4FA9;stop-color:color(display-p3 0.4824 0.3098 0.6627);stop-opacity:1;"/>
<stop offset="0.4" stop-color="#381C56" style="stop-color:#381C56;stop-color:color(display-p3 0.2196 0.1098 0.3373);stop-opacity:1;"/>
<stop offset="0.65" stop-color="#7B4FA9" style="stop-color:#7B4FA9;stop-color:color(display-p3 0.4824 0.3098 0.6627);stop-opacity:1;"/>
<stop offset="0.9" stop-color="white" style="stop-color:white;stop-opacity:1;"/>
</linearGradient>
<linearGradient id="paint19_linear_117_1063" x1="2.10938" y1="571.171" x2="637.471" y2="571.171" gradientUnits="userSpaceOnUse">
<stop stop-color="white" style="stop-color:white;stop-opacity:1;"/>
<stop offset="0.15" stop-color="#7B4FA9" style="stop-color:#7B4FA9;stop-color:color(display-p3 0.4824 0.3098 0.6627);stop-opacity:1;"/>
<stop offset="0.4" stop-color="#381C56" style="stop-color:#381C56;stop-color:color(display-p3 0.2196 0.1098 0.3373);stop-opacity:1;"/>
<stop offset="0.65" stop-color="#7B4FA9" style="stop-color:#7B4FA9;stop-color:color(display-p3 0.4824 0.3098 0.6627);stop-opacity:1;"/>
<stop offset="0.9" stop-color="white" style="stop-color:white;stop-opacity:1;"/>
</linearGradient>
<linearGradient id="paint20_linear_117_1063" x1="2.10938" y1="571.171" x2="637.471" y2="571.171" gradientUnits="userSpaceOnUse">
<stop stop-color="white" style="stop-color:white;stop-opacity:1;"/>
<stop offset="0.15" stop-color="#7B4FA9" style="stop-color:#7B4FA9;stop-color:color(display-p3 0.4824 0.3098 0.6627);stop-opacity:1;"/>
<stop offset="0.4" stop-color="#381C56" style="stop-color:#381C56;stop-color:color(display-p3 0.2196 0.1098 0.3373);stop-opacity:1;"/>
<stop offset="0.65" stop-color="#7B4FA9" style="stop-color:#7B4FA9;stop-color:color(display-p3 0.4824 0.3098 0.6627);stop-opacity:1;"/>
<stop offset="0.9" stop-color="white" style="stop-color:white;stop-opacity:1;"/>
</linearGradient>
<linearGradient id="paint21_linear_117_1063" x1="2.10938" y1="571.171" x2="637.471" y2="571.171" gradientUnits="userSpaceOnUse">
<stop stop-color="white" style="stop-color:white;stop-opacity:1;"/>
<stop offset="0.15" stop-color="#7B4FA9" style="stop-color:#7B4FA9;stop-color:color(display-p3 0.4824 0.3098 0.6627);stop-opacity:1;"/>
<stop offset="0.4" stop-color="#381C56" style="stop-color:#381C56;stop-color:color(display-p3 0.2196 0.1098 0.3373);stop-opacity:1;"/>
<stop offset="0.65" stop-color="#7B4FA9" style="stop-color:#7B4FA9;stop-color:color(display-p3 0.4824 0.3098 0.6627);stop-opacity:1;"/>
<stop offset="0.9" stop-color="white" style="stop-color:white;stop-opacity:1;"/>
</linearGradient>
<linearGradient id="paint22_linear_117_1063" x1="2.10938" y1="571.171" x2="637.471" y2="571.171" gradientUnits="userSpaceOnUse">
<stop stop-color="white" style="stop-color:white;stop-opacity:1;"/>
<stop offset="0.15" stop-color="#7B4FA9" style="stop-color:#7B4FA9;stop-color:color(display-p3 0.4824 0.3098 0.6627);stop-opacity:1;"/>
<stop offset="0.4" stop-color="#381C56" style="stop-color:#381C56;stop-color:color(display-p3 0.2196 0.1098 0.3373);stop-opacity:1;"/>
<stop offset="0.65" stop-color="#7B4FA9" style="stop-color:#7B4FA9;stop-color:color(display-p3 0.4824 0.3098 0.6627);stop-opacity:1;"/>
<stop offset="0.9" stop-color="white" style="stop-color:white;stop-opacity:1;"/>
</linearGradient>
<linearGradient id="paint23_linear_117_1063" x1="2.10938" y1="571.171" x2="637.471" y2="571.171" gradientUnits="userSpaceOnUse">
<stop stop-color="white" style="stop-color:white;stop-opacity:1;"/>
<stop offset="0.15" stop-color="#7B4FA9" style="stop-color:#7B4FA9;stop-color:color(display-p3 0.4824 0.3098 0.6627);stop-opacity:1;"/>
<stop offset="0.4" stop-color="#381C56" style="stop-color:#381C56;stop-color:color(display-p3 0.2196 0.1098 0.3373);stop-opacity:1;"/>
<stop offset="0.65" stop-color="#7B4FA9" style="stop-color:#7B4FA9;stop-color:color(display-p3 0.4824 0.3098 0.6627);stop-opacity:1;"/>
<stop offset="0.9" stop-color="white" style="stop-color:white;stop-opacity:1;"/>
</linearGradient>
<linearGradient id="paint24_linear_117_1063" x1="2.10938" y1="571.171" x2="637.471" y2="571.171" gradientUnits="userSpaceOnUse">
<stop stop-color="white" style="stop-color:white;stop-opacity:1;"/>
<stop offset="0.15" stop-color="#7B4FA9" style="stop-color:#7B4FA9;stop-color:color(display-p3 0.4824 0.3098 0.6627);stop-opacity:1;"/>
<stop offset="0.4" stop-color="#381C56" style="stop-color:#381C56;stop-color:color(display-p3 0.2196 0.1098 0.3373);stop-opacity:1;"/>
<stop offset="0.65" stop-color="#7B4FA9" style="stop-color:#7B4FA9;stop-color:color(display-p3 0.4824 0.3098 0.6627);stop-opacity:1;"/>
<stop offset="0.9" stop-color="white" style="stop-color:white;stop-opacity:1;"/>
</linearGradient>
</defs>
</svg>
